<?xml version="1.0" encoding="utf-8"?>
<!-- Generator: Adobe Illustrator 17.1.0, SVG Export Plug-In . SVG Version: 6.00 Build 0)  -->
<!DOCTYPE svg PUBLIC "-//W3C//DTD SVG 1.1//EN" "http://www.w3.org/Graphics/SVG/1.1/DTD/svg11.dtd">
<svg version="1.1" id="Layer_1" xmlns="http://www.w3.org/2000/svg" xmlns:xlink="http://www.w3.org/1999/xlink" x="0px" y="0px"
	 viewBox="0 0 358.7 316" enable-background="new 0 0 358.7 316" xml:space="preserve">
<g>
	<g>
		<polygon fill="#FFFFFF" points="169.7,311.3 5.7,311.3 5.7,3.3 169.7,3.3 169.7,19.3 21.7,19.3 21.7,295.3 169.7,295.3 		"/>
	</g>
	<g>
		<rect x="17.7" y="184.3" fill="#FFFFFF" width="133" height="16"/>
	</g>
</g>
<g>
	<rect x="190.7" y="3.3" fill="#FFFFFF" width="16" height="308"/>
</g>
<g>
	<rect x="337.7" y="3.3" fill="#FFFFFF" width="16" height="308"/>
</g>
<g>
	<rect x="202.7" y="184.3" fill="#FFFFFF" width="147" height="16"/>
</g>
<g>
	<g>
		<path fill="#FFFFFF" d="M128.1,149.1L76.2,86.3c-3-3.7-6.1-8.3-6.1-14.5c0-11,8.9-19.9,19.9-19.9v5c-8.2,0-14.9,6.7-14.9,14.9
			c0,4.6,2.5,8.3,5,11.3l51.9,62.8L128.1,149.1z"/>
	</g>
	<g>
		<path fill="#FFFFFF" d="M91.4,150c-19.4,0-35.2-15.8-35.2-35.2c0-14.1,8.4-26.9,21.4-32.4l2,4.6c-11.2,4.8-18.4,15.7-18.4,27.8
			c0,16.7,13.6,30.2,30.2,30.2c16.2,0,20.4-5.7,30.6-19.5c2.1-2.8,4.5-6,7.2-9.5l3.9,3.1c-2.7,3.4-5,6.6-7.1,9.4
			C115.8,142.4,110.2,150,91.4,150z"/>
	</g>
</g>
</svg>
